<mxfile host="app.diagrams.net" modified="2021-04-07T09:01:52.278Z" agent="5.0 (Windows NT 10.0; Win64; x64) AppleWebKit/537.36 (KHTML, like Gecko) Chrome/89.0.4389.114 Safari/537.36" etag="dBZ5LnG7smRix8qbtvCy" version="14.5.7" type="github">
  <diagram id="ldMmsAqKF8-JEFJYxq-1" name="第 1 页">
    <mxGraphModel dx="2249" dy="772" grid="1" gridSize="10" guides="1" tooltips="1" connect="1" arrows="1" fold="1" page="1" pageScale="1" pageWidth="827" pageHeight="1169" math="0" shadow="0">
      <root>
        <mxCell id="0" />
        <mxCell id="1" parent="0" />
        <mxCell id="YAuvIwza9s7kWfyugDVW-5" value="" style="edgeStyle=orthogonalEdgeStyle;rounded=0;orthogonalLoop=1;jettySize=auto;html=1;" edge="1" parent="1" source="YAuvIwza9s7kWfyugDVW-1" target="YAuvIwza9s7kWfyugDVW-4">
          <mxGeometry relative="1" as="geometry">
            <Array as="points">
              <mxPoint x="175" y="120" />
              <mxPoint x="175" y="120" />
            </Array>
          </mxGeometry>
        </mxCell>
        <mxCell id="YAuvIwza9s7kWfyugDVW-7" value="import" style="edgeLabel;html=1;align=center;verticalAlign=middle;resizable=0;points=[];" vertex="1" connectable="0" parent="YAuvIwza9s7kWfyugDVW-5">
          <mxGeometry x="-0.2858" y="2" relative="1" as="geometry">
            <mxPoint as="offset" />
          </mxGeometry>
        </mxCell>
        <mxCell id="YAuvIwza9s7kWfyugDVW-1" value="@EnableTransactionManagement" style="rounded=1;whiteSpace=wrap;html=1;fillColor=#dae8fc;strokeColor=#6c8ebf;" vertex="1" parent="1">
          <mxGeometry x="80" y="70" width="190" height="30" as="geometry" />
        </mxCell>
        <mxCell id="YAuvIwza9s7kWfyugDVW-3" value="" style="edgeStyle=orthogonalEdgeStyle;rounded=0;orthogonalLoop=1;jettySize=auto;html=1;" edge="1" parent="1" source="YAuvIwza9s7kWfyugDVW-2" target="YAuvIwza9s7kWfyugDVW-1">
          <mxGeometry relative="1" as="geometry" />
        </mxCell>
        <mxCell id="YAuvIwza9s7kWfyugDVW-2" value="开启事务注解" style="text;html=1;strokeColor=none;fillColor=none;align=center;verticalAlign=middle;whiteSpace=wrap;rounded=0;" vertex="1" parent="1">
          <mxGeometry x="135" y="30" width="80" height="20" as="geometry" />
        </mxCell>
        <mxCell id="YAuvIwza9s7kWfyugDVW-11" value="" style="edgeStyle=orthogonalEdgeStyle;rounded=0;orthogonalLoop=1;jettySize=auto;html=1;" edge="1" parent="1" source="YAuvIwza9s7kWfyugDVW-4" target="YAuvIwza9s7kWfyugDVW-10">
          <mxGeometry relative="1" as="geometry" />
        </mxCell>
        <mxCell id="YAuvIwza9s7kWfyugDVW-4" value="TransactionManagementConfigurationSelector" style="rounded=1;whiteSpace=wrap;html=1;fillColor=#dae8fc;strokeColor=#6c8ebf;" vertex="1" parent="1">
          <mxGeometry x="45" y="140" width="260" height="30" as="geometry" />
        </mxCell>
        <mxCell id="YAuvIwza9s7kWfyugDVW-14" value="" style="edgeStyle=orthogonalEdgeStyle;rounded=0;orthogonalLoop=1;jettySize=auto;html=1;entryX=0.5;entryY=0;entryDx=0;entryDy=0;" edge="1" parent="1" source="YAuvIwza9s7kWfyugDVW-10" target="YAuvIwza9s7kWfyugDVW-13">
          <mxGeometry relative="1" as="geometry" />
        </mxCell>
        <mxCell id="YAuvIwza9s7kWfyugDVW-17" value="自动注册代理 bean&amp;nbsp;定义" style="edgeLabel;html=1;align=center;verticalAlign=middle;resizable=0;points=[];" vertex="1" connectable="0" parent="YAuvIwza9s7kWfyugDVW-14">
          <mxGeometry x="0.062" y="1" relative="1" as="geometry">
            <mxPoint x="18.12" y="-0.98" as="offset" />
          </mxGeometry>
        </mxCell>
        <mxCell id="YAuvIwza9s7kWfyugDVW-16" style="edgeStyle=orthogonalEdgeStyle;rounded=0;orthogonalLoop=1;jettySize=auto;html=1;entryX=0.5;entryY=0;entryDx=0;entryDy=0;" edge="1" parent="1" source="YAuvIwza9s7kWfyugDVW-10" target="YAuvIwza9s7kWfyugDVW-15">
          <mxGeometry relative="1" as="geometry" />
        </mxCell>
        <mxCell id="YAuvIwza9s7kWfyugDVW-18" value="代理事务管理配置" style="edgeLabel;html=1;align=center;verticalAlign=middle;resizable=0;points=[];" vertex="1" connectable="0" parent="YAuvIwza9s7kWfyugDVW-16">
          <mxGeometry x="-0.3127" y="2" relative="1" as="geometry">
            <mxPoint as="offset" />
          </mxGeometry>
        </mxCell>
        <mxCell id="YAuvIwza9s7kWfyugDVW-10" value="加载" style="rhombus;whiteSpace=wrap;html=1;rounded=1;strokeColor=#6c8ebf;fillColor=#dae8fc;" vertex="1" parent="1">
          <mxGeometry x="82.5" y="210" width="185" height="45" as="geometry" />
        </mxCell>
        <mxCell id="YAuvIwza9s7kWfyugDVW-20" value="" style="edgeStyle=orthogonalEdgeStyle;rounded=0;orthogonalLoop=1;jettySize=auto;html=1;" edge="1" parent="1" source="YAuvIwza9s7kWfyugDVW-13" target="YAuvIwza9s7kWfyugDVW-19">
          <mxGeometry relative="1" as="geometry" />
        </mxCell>
        <mxCell id="YAuvIwza9s7kWfyugDVW-13" value="AutoProxyRegistrar" style="whiteSpace=wrap;html=1;rounded=1;strokeColor=#6c8ebf;fillColor=#dae8fc;" vertex="1" parent="1">
          <mxGeometry x="-150" y="255" width="130" height="27.5" as="geometry" />
        </mxCell>
        <mxCell id="YAuvIwza9s7kWfyugDVW-36" value="" style="edgeStyle=orthogonalEdgeStyle;rounded=0;orthogonalLoop=1;jettySize=auto;html=1;" edge="1" parent="1" source="YAuvIwza9s7kWfyugDVW-15" target="YAuvIwza9s7kWfyugDVW-35">
          <mxGeometry relative="1" as="geometry" />
        </mxCell>
        <mxCell id="YAuvIwza9s7kWfyugDVW-37" value="创建事务拦截器" style="edgeLabel;html=1;align=center;verticalAlign=middle;resizable=0;points=[];" vertex="1" connectable="0" parent="YAuvIwza9s7kWfyugDVW-36">
          <mxGeometry x="0.0434" y="1" relative="1" as="geometry">
            <mxPoint x="9.24" y="-3.48" as="offset" />
          </mxGeometry>
        </mxCell>
        <mxCell id="YAuvIwza9s7kWfyugDVW-39" value="" style="edgeStyle=orthogonalEdgeStyle;rounded=0;orthogonalLoop=1;jettySize=auto;html=1;" edge="1" parent="1" source="YAuvIwza9s7kWfyugDVW-15" target="YAuvIwza9s7kWfyugDVW-38">
          <mxGeometry relative="1" as="geometry" />
        </mxCell>
        <mxCell id="YAuvIwza9s7kWfyugDVW-40" value="创建事务&amp;nbsp;advisor" style="edgeLabel;html=1;align=center;verticalAlign=middle;resizable=0;points=[];" vertex="1" connectable="0" parent="YAuvIwza9s7kWfyugDVW-39">
          <mxGeometry x="-0.231" y="1" relative="1" as="geometry">
            <mxPoint x="49.17" y="-1.48" as="offset" />
          </mxGeometry>
        </mxCell>
        <mxCell id="YAuvIwza9s7kWfyugDVW-15" value="ProxyTransactionManagementConfiguration" style="whiteSpace=wrap;html=1;rounded=1;strokeColor=#6c8ebf;fillColor=#dae8fc;" vertex="1" parent="1">
          <mxGeometry x="370" y="255" width="250" height="25" as="geometry" />
        </mxCell>
        <mxCell id="YAuvIwza9s7kWfyugDVW-24" value="" style="edgeStyle=orthogonalEdgeStyle;rounded=0;orthogonalLoop=1;jettySize=auto;html=1;" edge="1" parent="1" source="YAuvIwza9s7kWfyugDVW-19" target="YAuvIwza9s7kWfyugDVW-23">
          <mxGeometry relative="1" as="geometry" />
        </mxCell>
        <mxCell id="YAuvIwza9s7kWfyugDVW-19" value="registerBeanDefinitions(...)" style="whiteSpace=wrap;html=1;rounded=1;strokeColor=#6c8ebf;fillColor=#dae8fc;" vertex="1" parent="1">
          <mxGeometry x="-157.5" y="310" width="145" height="30" as="geometry" />
        </mxCell>
        <mxCell id="YAuvIwza9s7kWfyugDVW-21" value="AopConfigUtils.&lt;br&gt;registerAutoProxyCreatorIfNecessary(registry)" style="whiteSpace=wrap;html=1;rounded=1;strokeColor=#6c8ebf;fillColor=#dae8fc;" vertex="1" parent="1">
          <mxGeometry x="-214.38" y="440" width="258.75" height="30" as="geometry" />
        </mxCell>
        <mxCell id="YAuvIwza9s7kWfyugDVW-25" style="edgeStyle=orthogonalEdgeStyle;rounded=0;orthogonalLoop=1;jettySize=auto;html=1;" edge="1" parent="1" source="YAuvIwza9s7kWfyugDVW-23" target="YAuvIwza9s7kWfyugDVW-21">
          <mxGeometry relative="1" as="geometry" />
        </mxCell>
        <mxCell id="YAuvIwza9s7kWfyugDVW-26" value="是&amp;nbsp;JDK&amp;nbsp;代理" style="edgeLabel;html=1;align=center;verticalAlign=middle;resizable=0;points=[];" vertex="1" connectable="0" parent="YAuvIwza9s7kWfyugDVW-25">
          <mxGeometry x="-0.0632" relative="1" as="geometry">
            <mxPoint as="offset" />
          </mxGeometry>
        </mxCell>
        <mxCell id="YAuvIwza9s7kWfyugDVW-30" value="" style="edgeStyle=orthogonalEdgeStyle;rounded=0;orthogonalLoop=1;jettySize=auto;html=1;" edge="1" parent="1" source="YAuvIwza9s7kWfyugDVW-23" target="YAuvIwza9s7kWfyugDVW-29">
          <mxGeometry relative="1" as="geometry" />
        </mxCell>
        <mxCell id="YAuvIwza9s7kWfyugDVW-31" value="CGlib" style="edgeLabel;html=1;align=center;verticalAlign=middle;resizable=0;points=[];" vertex="1" connectable="0" parent="YAuvIwza9s7kWfyugDVW-30">
          <mxGeometry x="-0.0298" relative="1" as="geometry">
            <mxPoint as="offset" />
          </mxGeometry>
        </mxCell>
        <mxCell id="YAuvIwza9s7kWfyugDVW-23" value="JDK Proxy?" style="rhombus;whiteSpace=wrap;html=1;rounded=1;strokeColor=#6c8ebf;fillColor=#dae8fc;" vertex="1" parent="1">
          <mxGeometry x="-175.94" y="370" width="181.87" height="30" as="geometry" />
        </mxCell>
        <mxCell id="YAuvIwza9s7kWfyugDVW-33" value="" style="edgeStyle=orthogonalEdgeStyle;rounded=0;orthogonalLoop=1;jettySize=auto;html=1;exitX=0.5;exitY=1;exitDx=0;exitDy=0;" edge="1" parent="1" source="YAuvIwza9s7kWfyugDVW-21" target="YAuvIwza9s7kWfyugDVW-32">
          <mxGeometry relative="1" as="geometry" />
        </mxCell>
        <mxCell id="YAuvIwza9s7kWfyugDVW-34" value="&lt;font color=&quot;#ff3333&quot;&gt;注册下面的类，因为它实现了&amp;nbsp;BeanPostProcessor，&lt;br&gt;所以会在&amp;nbsp;bean&amp;nbsp;初始化时执行它的后置处理方法&lt;/font&gt;" style="edgeLabel;html=1;align=center;verticalAlign=middle;resizable=0;points=[];" vertex="1" connectable="0" parent="YAuvIwza9s7kWfyugDVW-33">
          <mxGeometry x="-0.2914" y="-1" relative="1" as="geometry">
            <mxPoint x="1" y="5.17" as="offset" />
          </mxGeometry>
        </mxCell>
        <mxCell id="YAuvIwza9s7kWfyugDVW-29" value="AopConfigUtils&lt;br&gt;.forceAutoProxyCreatorToUseClassProxying(registry)" style="whiteSpace=wrap;html=1;rounded=1;strokeColor=#82b366;fillColor=#d5e8d4;" vertex="1" parent="1">
          <mxGeometry x="-530" y="440" width="288.75" height="30" as="geometry" />
        </mxCell>
        <mxCell id="YAuvIwza9s7kWfyugDVW-45" value="" style="edgeStyle=orthogonalEdgeStyle;rounded=0;orthogonalLoop=1;jettySize=auto;html=1;" edge="1" parent="1" source="YAuvIwza9s7kWfyugDVW-32" target="YAuvIwza9s7kWfyugDVW-44">
          <mxGeometry relative="1" as="geometry" />
        </mxCell>
        <mxCell id="YAuvIwza9s7kWfyugDVW-46" value="IoC&amp;nbsp;容器启动时执行" style="edgeLabel;html=1;align=center;verticalAlign=middle;resizable=0;points=[];" vertex="1" connectable="0" parent="YAuvIwza9s7kWfyugDVW-45">
          <mxGeometry x="0.3025" relative="1" as="geometry">
            <mxPoint y="-12.41" as="offset" />
          </mxGeometry>
        </mxCell>
        <mxCell id="YAuvIwza9s7kWfyugDVW-32" value="&lt;b&gt;InfrastructureAdvisorAutoProxyCreator&lt;/b&gt;" style="whiteSpace=wrap;html=1;rounded=1;strokeColor=#6c8ebf;fillColor=#dae8fc;" vertex="1" parent="1">
          <mxGeometry x="-229.37" y="540" width="288.75" height="30" as="geometry" />
        </mxCell>
        <mxCell id="YAuvIwza9s7kWfyugDVW-35" value="TransactionInterceptor" style="whiteSpace=wrap;html=1;rounded=1;strokeColor=#6c8ebf;fillColor=#dae8fc;" vertex="1" parent="1">
          <mxGeometry x="250" y="345" width="150" height="25" as="geometry" />
        </mxCell>
        <mxCell id="YAuvIwza9s7kWfyugDVW-66" style="edgeStyle=orthogonalEdgeStyle;rounded=0;orthogonalLoop=1;jettySize=auto;html=1;entryX=1;entryY=0.5;entryDx=0;entryDy=0;dashed=1;" edge="1" parent="1" source="YAuvIwza9s7kWfyugDVW-38" target="YAuvIwza9s7kWfyugDVW-62">
          <mxGeometry relative="1" as="geometry">
            <Array as="points">
              <mxPoint x="660" y="875" />
            </Array>
          </mxGeometry>
        </mxCell>
        <mxCell id="YAuvIwza9s7kWfyugDVW-67" value="获取到配置好的&amp;nbsp;advisor" style="edgeLabel;html=1;align=center;verticalAlign=middle;resizable=0;points=[];" vertex="1" connectable="0" parent="YAuvIwza9s7kWfyugDVW-66">
          <mxGeometry x="0.6071" y="-1" relative="1" as="geometry">
            <mxPoint as="offset" />
          </mxGeometry>
        </mxCell>
        <mxCell id="YAuvIwza9s7kWfyugDVW-38" value="BeanFactoryTransactionAttributeSourceAdvisor" style="whiteSpace=wrap;html=1;rounded=1;strokeColor=#6c8ebf;fillColor=#dae8fc;" vertex="1" parent="1">
          <mxGeometry x="530" y="345" width="260" height="25" as="geometry" />
        </mxCell>
        <mxCell id="YAuvIwza9s7kWfyugDVW-48" value="" style="edgeStyle=orthogonalEdgeStyle;rounded=0;orthogonalLoop=1;jettySize=auto;html=1;" edge="1" parent="1" source="YAuvIwza9s7kWfyugDVW-44" target="YAuvIwza9s7kWfyugDVW-47">
          <mxGeometry relative="1" as="geometry" />
        </mxCell>
        <mxCell id="YAuvIwza9s7kWfyugDVW-44" value="postProcessAfterInitialization()" style="whiteSpace=wrap;html=1;rounded=1;strokeColor=#6c8ebf;fillColor=#dae8fc;" vertex="1" parent="1">
          <mxGeometry x="-229.38" y="620" width="288.75" height="30" as="geometry" />
        </mxCell>
        <mxCell id="YAuvIwza9s7kWfyugDVW-50" value="" style="edgeStyle=orthogonalEdgeStyle;rounded=0;orthogonalLoop=1;jettySize=auto;html=1;" edge="1" parent="1" source="YAuvIwza9s7kWfyugDVW-47" target="YAuvIwza9s7kWfyugDVW-49">
          <mxGeometry relative="1" as="geometry" />
        </mxCell>
        <mxCell id="YAuvIwza9s7kWfyugDVW-51" value="是否基础类/能否跳过" style="edgeLabel;html=1;align=center;verticalAlign=middle;resizable=0;points=[];" vertex="1" connectable="0" parent="YAuvIwza9s7kWfyugDVW-50">
          <mxGeometry x="0.2243" y="2" relative="1" as="geometry">
            <mxPoint x="-2.08" y="-10.75" as="offset" />
          </mxGeometry>
        </mxCell>
        <mxCell id="YAuvIwza9s7kWfyugDVW-47" value="wrapIfNecessary(bean, beanName, cacheKey)" style="whiteSpace=wrap;html=1;rounded=1;strokeColor=#6c8ebf;fillColor=#dae8fc;" vertex="1" parent="1">
          <mxGeometry x="-229.37" y="680" width="288.75" height="30" as="geometry" />
        </mxCell>
        <mxCell id="YAuvIwza9s7kWfyugDVW-55" style="edgeStyle=orthogonalEdgeStyle;rounded=0;orthogonalLoop=1;jettySize=auto;html=1;" edge="1" parent="1" source="YAuvIwza9s7kWfyugDVW-49" target="YAuvIwza9s7kWfyugDVW-54">
          <mxGeometry relative="1" as="geometry" />
        </mxCell>
        <mxCell id="YAuvIwza9s7kWfyugDVW-56" value="是" style="edgeLabel;html=1;align=center;verticalAlign=middle;resizable=0;points=[];" vertex="1" connectable="0" parent="YAuvIwza9s7kWfyugDVW-55">
          <mxGeometry x="-0.7643" y="-2" relative="1" as="geometry">
            <mxPoint as="offset" />
          </mxGeometry>
        </mxCell>
        <mxCell id="YAuvIwza9s7kWfyugDVW-64" value="" style="edgeStyle=orthogonalEdgeStyle;rounded=0;orthogonalLoop=1;jettySize=auto;html=1;" edge="1" parent="1" source="YAuvIwza9s7kWfyugDVW-49" target="YAuvIwza9s7kWfyugDVW-62">
          <mxGeometry relative="1" as="geometry" />
        </mxCell>
        <mxCell id="YAuvIwza9s7kWfyugDVW-65" value="获取匹配的&amp;nbsp;advisor" style="edgeLabel;html=1;align=center;verticalAlign=middle;resizable=0;points=[];" vertex="1" connectable="0" parent="YAuvIwza9s7kWfyugDVW-64">
          <mxGeometry x="0.2928" y="-1" relative="1" as="geometry">
            <mxPoint x="1" y="-10.739999999999998" as="offset" />
          </mxGeometry>
        </mxCell>
        <mxCell id="YAuvIwza9s7kWfyugDVW-49" value="isInfrastructureClass ||&amp;nbsp;shouldSkip" style="rhombus;whiteSpace=wrap;html=1;rounded=1;strokeColor=#6c8ebf;fillColor=#dae8fc;" vertex="1" parent="1">
          <mxGeometry x="-231.25" y="760" width="292.5" height="45" as="geometry" />
        </mxCell>
        <mxCell id="YAuvIwza9s7kWfyugDVW-54" value="return" style="whiteSpace=wrap;html=1;rounded=1;strokeColor=#6c8ebf;fillColor=#dae8fc;" vertex="1" parent="1">
          <mxGeometry x="-540" y="1070" width="288.75" height="30" as="geometry" />
        </mxCell>
        <mxCell id="YAuvIwza9s7kWfyugDVW-71" style="edgeStyle=orthogonalEdgeStyle;rounded=0;orthogonalLoop=1;jettySize=auto;html=1;entryX=1;entryY=0.5;entryDx=0;entryDy=0;exitX=0.5;exitY=1;exitDx=0;exitDy=0;" edge="1" parent="1" source="YAuvIwza9s7kWfyugDVW-59" target="YAuvIwza9s7kWfyugDVW-54">
          <mxGeometry relative="1" as="geometry" />
        </mxCell>
        <mxCell id="YAuvIwza9s7kWfyugDVW-72" value="proxy&amp;nbsp;object" style="edgeLabel;html=1;align=center;verticalAlign=middle;resizable=0;points=[];" vertex="1" connectable="0" parent="YAuvIwza9s7kWfyugDVW-71">
          <mxGeometry x="0.1319" y="1" relative="1" as="geometry">
            <mxPoint as="offset" />
          </mxGeometry>
        </mxCell>
        <mxCell id="YAuvIwza9s7kWfyugDVW-59" value="&lt;div&gt;createProxy(&lt;span&gt;&amp;nbsp;...)&lt;/span&gt;&lt;/div&gt;" style="whiteSpace=wrap;html=1;rounded=1;strokeColor=#6c8ebf;fillColor=#dae8fc;" vertex="1" parent="1">
          <mxGeometry x="-214.99" y="940" width="260" height="25" as="geometry" />
        </mxCell>
        <mxCell id="YAuvIwza9s7kWfyugDVW-69" value="" style="edgeStyle=orthogonalEdgeStyle;rounded=0;orthogonalLoop=1;jettySize=auto;html=1;" edge="1" parent="1" source="YAuvIwza9s7kWfyugDVW-62" target="YAuvIwza9s7kWfyugDVW-59">
          <mxGeometry relative="1" as="geometry" />
        </mxCell>
        <mxCell id="YAuvIwza9s7kWfyugDVW-70" value="创建代理" style="edgeLabel;html=1;align=center;verticalAlign=middle;resizable=0;points=[];" vertex="1" connectable="0" parent="YAuvIwza9s7kWfyugDVW-69">
          <mxGeometry x="-0.2253" relative="1" as="geometry">
            <mxPoint as="offset" />
          </mxGeometry>
        </mxCell>
        <mxCell id="YAuvIwza9s7kWfyugDVW-62" value="getAdvicesAndAdvisorsForBean(bean.getClass(), beanName, null)" style="whiteSpace=wrap;html=1;rounded=1;strokeColor=#6c8ebf;fillColor=#dae8fc;" vertex="1" parent="1">
          <mxGeometry x="-222.81" y="860" width="275.63" height="30" as="geometry" />
        </mxCell>
        <mxCell id="YAuvIwza9s7kWfyugDVW-73" value="&lt;b&gt;&lt;font style=&quot;font-size: 15px&quot;&gt;1. 启动容器是初始化事务相关组件创建代理类&lt;/font&gt;&lt;/b&gt;" style="text;html=1;align=center;verticalAlign=middle;resizable=0;points=[];autosize=1;" vertex="1" parent="1">
          <mxGeometry x="160" y="545" width="320" height="20" as="geometry" />
        </mxCell>
      </root>
    </mxGraphModel>
  </diagram>
</mxfile>
